<svg width="300" height="300" viewBox="0 0 300 300" fill="none" xmlns="http://www.w3.org/2000/svg">
<rect width="300" height="300" fill="#935FF0"/>
<g clip-path="url(#clip0_10_717)">
<path d="M225 110.667V91.6667C225 82.5 217.5 75 208.333 75H91.6667C82.4167 75 75 82.5 75 91.6667V208.333C75 217.5 82.4167 225 91.6667 225H208.333C217.5 225 225 217.5 225 208.333V189.333C229.917 186.417 233.333 181.167 233.333 175V125C233.333 118.833 229.917 113.583 225 110.667ZM216.667 125V175H158.333V125H216.667ZM91.6667 208.333V91.6667H208.333V108.333H158.333C149.167 108.333 141.667 115.833 141.667 125V175C141.667 184.167 149.167 191.667 158.333 191.667H208.333V208.333H91.6667Z" fill="#F5F5F5"/>
<path d="M183.333 162.5C190.237 162.5 195.833 156.904 195.833 150C195.833 143.096 190.237 137.5 183.333 137.5C176.43 137.5 170.833 143.096 170.833 150C170.833 156.904 176.43 162.5 183.333 162.5Z" fill="#F5F5F5"/>
</g>
<defs>
<clipPath id="clip0_10_717">
<rect width="200" height="200" fill="white" transform="translate(50 50)"/>
</clipPath>
</defs>
</svg>
